<?xml version="1.0" standalone="no"?>
<!DOCTYPE svg PUBLIC "-//W3C//DTD SVG 20010904//EN"
 "http://www.w3.org/TR/2001/REC-SVG-20010904/DTD/svg10.dtd">
<svg version="1.0" xmlns="http://www.w3.org/2000/svg"
 width="800.000000pt" height="800.000000pt" viewBox="0 0 800.000000 800.000000"
 preserveAspectRatio="xMidYMid meet">
<metadata>
Created by potrace 1.11, written by Peter Selinger 2001-2013
</metadata>
<g transform="translate(0.000000,800.000000) scale(0.100000,-0.100000)"
fill="#000000" stroke="none">
<path d="M3400 6900 l0 -50 -150 0 -150 0 0 -50 0 -50 -100 0 -100 0 0 -50 0
-50 -50 0 -50 0 0 -50 0 -50 -100 0 -100 0 0 -50 0 -50 -50 0 -50 0 0 -50 0
-50 -50 0 -50 0 0 -50 0 -50 50 0 50 0 0 50 0 50 100 0 100 0 0 -50 0 -50 -50
0 -50 0 0 -50 0 -50 -50 0 -50 0 0 -100 0 -100 -50 0 -50 0 0 -100 0 -100 -50
0 -50 0 0 -300 0 -300 50 0 50 0 0 -200 0 -200 50 0 50 0 0 100 0 100 50 0 50
0 0 -150 0 -150 50 0 50 0 0 -200 0 -200 50 0 50 0 0 250 0 250 150 0 150 0 0
50 0 50 50 0 50 0 0 -50 0 -50 50 0 50 0 0 -50 0 -50 100 0 100 0 0 50 0 50
50 0 50 0 0 50 0 50 -50 0 -50 0 0 50 0 50 -250 0 -250 0 0 100 0 100 100 0
100 0 0 -50 0 -50 200 0 200 0 0 50 0 50 -50 0 -50 0 0 100 0 100 100 0 100 0
0 50 0 50 100 0 100 0 0 50 0 50 50 0 50 0 0 -100 0 -100 -50 0 -50 0 0 -100
0 -100 50 0 50 0 0 -50 0 -50 250 0 250 0 0 50 0 50 100 0 100 0 0 -50 0 -50
50 0 50 0 0 50 0 50 -50 0 -50 0 0 50 0 50 50 0 50 0 0 50 0 50 50 0 50 0 0
-50 0 -50 50 0 50 0 0 -400 0 -400 50 0 50 0 0 50 0 50 50 0 50 0 0 200 0 200
50 0 50 0 0 450 0 450 -50 0 -50 0 0 150 0 150 -50 0 -50 0 0 100 0 100 -50 0
-50 0 0 100 0 100 -50 0 -50 0 0 50 0 50 -100 0 -100 0 0 50 0 50 -100 0 -100
0 0 50 0 50 -150 0 -150 0 0 50 0 50 -400 0 -400 0 0 -50z m700 -1300 l0 -50
-50 0 -50 0 0 50 0 50 50 0 50 0 0 -50z m400 0 l0 -50 -50 0 -50 0 0 -50 0
-50 150 0 150 0 0 50 0 50 50 0 50 0 0 -50 0 -50 -50 0 -50 0 0 -50 0 -50 -50
0 -50 0 0 -50 0 -50 -250 0 -250 0 0 -50 0 -50 -50 0 -50 0 0 100 0 100 50 0
50 0 0 50 0 50 50 0 50 0 0 50 0 50 100 0 100 0 0 50 0 50 50 0 50 0 0 -50z
m-1500 -700 l0 -50 -50 0 -50 0 0 50 0 50 50 0 50 0 0 -50z m500 -100 l0 -50
-50 0 -50 0 0 50 0 50 50 0 50 0 0 -50z"/>
<path d="M4100 4900 l0 -50 -50 0 -50 0 0 -50 0 -50 50 0 50 0 0 -50 0 -50 50
0 50 0 0 50 0 50 50 0 50 0 0 -50 0 -50 50 0 50 0 0 100 0 100 50 0 50 0 0
-50 0 -50 100 0 100 0 0 50 0 50 -50 0 -50 0 0 50 0 50 -250 0 -250 0 0 -50z
m100 -100 l0 -50 -50 0 -50 0 0 50 0 50 50 0 50 0 0 -50z"/>
<path d="M4900 4150 l0 -200 -50 0 -50 0 0 -150 0 -150 -50 0 -50 0 0 -50 0
-50 -50 0 -50 0 0 -50 0 -50 -50 0 -50 0 0 -50 0 -50 -50 0 -50 0 0 -50 0 -50
-50 0 -50 0 0 -50 0 -50 -100 0 -100 0 0 -50 0 -50 -300 0 -300 0 0 50 0 50
-50 0 -50 0 0 50 0 50 -50 0 -50 0 0 50 0 50 -50 0 -50 0 0 -50 0 -50 -100 0
-100 0 0 -50 0 -50 -50 0 -50 0 0 -50 0 -50 -150 0 -150 0 0 -50 0 -50 -100 0
-100 0 0 -50 0 -50 -150 0 -150 0 0 -50 0 -50 -100 0 -100 0 0 -50 0 -50 -100
0 -100 0 0 -50 0 -50 -100 0 -100 0 0 -150 0 -150 50 0 50 0 0 -50 0 -50 50 0
50 0 0 -50 0 -50 50 0 50 0 0 -50 0 -50 50 0 50 0 0 -50 0 -50 50 0 50 0 0
-50 0 -50 50 0 50 0 0 -50 0 -50 100 0 100 0 0 -50 0 -50 50 0 50 0 0 -50 0
-50 100 0 100 0 0 -50 0 -50 100 0 100 0 0 -50 0 -50 150 0 150 0 0 -50 0 -50
200 0 200 0 0 -50 0 -50 500 0 500 0 0 50 0 50 200 0 200 0 0 50 0 50 150 0
150 0 0 50 0 50 100 0 100 0 0 50 0 50 100 0 100 0 0 50 0 50 50 0 50 0 0 50
0 50 100 0 100 0 0 50 0 50 50 0 50 0 0 50 0 50 50 0 50 0 0 50 0 50 50 0 50
0 0 50 0 50 50 0 50 0 0 50 0 50 50 0 50 0 0 50 0 50 50 0 50 0 0 150 0 150
-100 0 -100 0 0 50 0 50 -100 0 -100 0 0 50 0 50 -100 0 -100 0 0 50 0 50
-150 0 -150 0 0 50 0 50 -100 0 -100 0 0 50 0 50 -150 0 -150 0 0 50 0 50 -50
0 -50 0 0 50 0 50 -50 0 -50 0 0 50 0 50 -50 0 -50 0 0 -250 0 -250 -50 0 -50
0 0 -100 0 -100 -50 0 -50 0 0 -50 0 -50 -50 0 -50 0 0 -50 0 -50 -50 0 -50 0
0 -50 0 -50 -100 0 -100 0 0 -50 0 -50 -50 0 -50 0 0 -50 0 -50 -100 0 -100 0
0 50 0 50 -50 0 -50 0 0 50 0 50 -50 0 -50 0 0 50 0 50 -100 0 -100 0 0 50 0
50 -50 0 -50 0 0 50 0 50 -50 0 -50 0 0 200 0 200 100 0 100 0 0 -50 0 -50
300 0 300 0 0 50 0 50 100 0 100 0 0 50 0 50 50 0 50 0 0 50 0 50 50 0 50 0 0
50 0 50 50 0 50 0 0 50 0 50 50 0 50 0 0 50 0 50 50 0 50 0 0 50 0 50 50 0 50
0 0 150 0 150 50 0 50 0 0 200 0 200 -50 0 -50 0 0 -200z m-900 -2150 l0 -50
-50 0 -50 0 0 50 0 50 50 0 50 0 0 -50z m0 -700 l0 -50 -50 0 -50 0 0 50 0 50
50 0 50 0 0 -50z"/>
<path d="M3600 4100 l0 -50 50 0 50 0 0 50 0 50 -50 0 -50 0 0 -50z"/>
<path d="M3900 4100 l0 -50 50 0 50 0 0 50 0 50 -50 0 -50 0 0 -50z"/>
<path d="M3500 3700 l0 -50 350 0 350 0 0 50 0 50 -350 0 -350 0 0 -50z"/>
</g>
</svg>
